Coordinates
version=1
nRows=17
nColumns=40
inDegrees=yes

Units are S.I. units (second, meters, Newtons, ...)
Angles are in degrees.

endheader
time	pelvis_tilt	pelvis_list	pelvis_rotation	pelvis_tx	pelvis_ty	pelvis_tz	hip_flexion_r	hip_adduction_r	hip_rotation_r	knee_angle_r	knee_angle_r_beta	ankle_angle_r	subtalar_angle_r	mtp_angle_r	hip_flexion_l	hip_adduction_l	hip_rotation_l	knee_angle_l	knee_angle_l_beta	ankle_angle_l	subtalar_angle_l	mtp_angle_l	lumbar_extension	lumbar_bending	lumbar_rotation	arm_flex_r	arm_add_r	arm_rot_r	elbow_flex_r	pro_sup_r	wrist_flex_r	wrist_dev_r	arm_flex_l	arm_add_l	arm_rot_l	elbow_flex_l	pro_sup_l	wrist_flex_l	wrist_dev_l
     41.83500000	     -4.21845780	     -7.35385142	      0.08780714	      1.05657167	      0.91771240	      0.51433913	     -2.02865527	      6.15825664	    -18.43282850	     10.68084714	     10.68084714	     19.09995225	     14.27626346	     -2.19060546	     32.38612970	    -11.70793399	     -2.75941739	     20.71459841	     20.71459841	      2.05679597	     -9.05149595	     10.02789650	    -11.53019817	     10.14437963	      6.48877810	     47.49582533	    -13.07103248	     10.04835374	    102.95521461	     43.74284790	      0.00000000	      0.00000000	    -24.76072799	     -8.37348987	     -2.65236871	     27.59367338	     45.88378231	      0.00000000	      0.00000000
     41.84721429	     -4.33198586	     -7.25510631	     -0.21051791	      1.05772162	      0.91676190	      0.51249548	     -2.41284379	      5.79379317	    -18.22643367	     11.05016826	     11.05016826	     19.49867516	     14.39701814	     -1.74717798	     31.96342021	    -11.35251961	     -2.17158600	     21.64445721	     21.64445721	      1.55756199	    -10.11530436	      9.40059307	    -11.37674752	     10.04995888	      6.71484707	     47.39977408	    -13.94601898	     10.10863422	    106.59790279	     43.68997331	      0.00000000	      0.00000000	    -24.82314927	     -8.46299101	     -2.19553678	     28.11896768	     45.81025298	      0.00000000	      0.00000000
     41.85942857	     -4.49801912	     -7.08420162	     -0.46421275	      1.05880423	      0.91598498	      0.51038757	     -2.73112600	      5.33859147	    -17.96431122	     11.39259271	     11.39259271	     19.75049025	     14.46834111	     -1.51761777	     31.66251070	    -10.90910555	     -1.56368559	     22.55117117	     22.55117117	      1.39867604	    -11.17129993	      9.11512236	    -11.16052705	      9.87008086	      6.57961721	     47.22719983	    -14.55554780	     10.29639448	    109.76679343	     43.63896224	      0.00000000	      0.00000000	    -24.80088717	     -8.41422966	     -1.76999677	     28.37971999	     45.74704721	      0.00000000	      0.00000000
     41.87164286	     -4.63485266	     -6.89130207	     -0.70064248	      1.05986605	      0.91556802	      0.50823008	     -3.14403428	      4.88560143	    -17.70760595	     11.57386034	     11.57386034	     19.76882352	     14.49047714	     -1.48268035	     31.42257767	    -10.54481600	     -1.30300686	     23.49019578	     23.49019578	      1.61502550	    -11.77642429	      8.89582747	    -10.90461844	      9.63074404	      5.99596485	     47.25340204	    -14.63466905	     10.34105985	    110.87300278	     43.61000377	      0.00000000	      0.00000000	    -24.73004397	     -8.22467964	     -1.68225139	     28.43002739	     45.73482105	      0.00000000	      0.00000000
     41.88385714	     -4.92517321	     -6.66782742	     -0.84923620	      1.06060557	      0.91524458	      0.50563881	     -3.20018213	      4.31527511	    -17.61417841	     12.07568133	     12.07568133	     19.83070705	     14.52053771	     -1.41942355	     31.38527643	     -9.98911589	     -0.58707729	     24.26855932	     24.26855932	      1.74895704	    -13.10594815	      9.06964220	    -10.75954364	      9.46960069	      6.04308479	     46.43102038	    -15.89313873	     10.57931487	    115.47549022	     43.49241272	      0.00000000	      0.00000000	    -24.26233386	     -8.24341609	     -1.53105962	     28.97665135	     45.71939338	      0.00000000	      0.00000000
     41.89607143	     -5.14072115	     -6.42285500	     -0.99907907	      1.06141843	      0.91535311	      0.50297617	     -3.42577880	      3.73967418	    -17.50405809	     12.39420732	     12.39420732	     19.75791975	     14.63187110	     -1.29665797	     31.31847782	     -9.53233420	     -0.29339480	     25.09013277	     25.09013277	      2.36958421	    -13.80109684	      9.38864963	    -10.60740446	      9.22678055	      6.46092871	     45.19110405	    -17.42318209	      9.75681827	    118.76106033	     43.47656355	      0.00000000	      0.00000000	    -23.32897885	     -8.46648250	     -1.00883512	     29.26908350	     45.65864983	      0.00000000	      0.00000000
     41.90828571	     -5.34255629	     -6.19675679	     -1.11129236	      1.06218324	      0.91565933	      0.50021061	     -3.63457538	      3.17942388	    -17.35849440	     12.74722225	     12.74722225	     19.60380276	     14.64829688	     -1.28995408	     31.24313086	     -9.11411318	     -0.08861881	     25.84255336	     25.84255336	      2.99850879	    -14.39382277	      9.21205939	    -10.43138925	      8.99183384	      5.70622189	     44.47120994	    -17.72947018	      9.79517064	    119.91620717	     43.44705802	      0.00000000	      0.00000000	    -22.88136662	     -8.33248533	     -0.89303891	     29.48344679	     45.64878246	      0.00000000	      0.00000000
     41.92050000	     -5.71938548	     -5.88992633	     -1.19180560	      1.06270658	      0.91599747	      0.49707980	     -3.41754438	      2.41317902	    -17.46803443	     13.53557805	     13.53557805	     19.44318563	     14.78173068	     -1.46914277	     31.26461363	     -8.55599859	      0.10463977	     26.34586404	     26.34586404	      3.69019999	    -15.06614088	      9.65029793	    -10.16105767	      8.78608454	      5.76480443	     42.96109221	    -19.08110582	      9.55496852	    123.04254542	     43.37877612	      0.00000000	      0.00000000	    -21.95970844	     -8.37620954	     -0.80476724	     30.28324096	     45.64973736	      0.00000000	      0.00000000
     41.93271429	     -5.87802818	     -5.63494338	     -1.24873591	      1.06345036	      0.91683639	      0.49392010	     -3.60733243	      1.76437016	    -17.44761023	     13.97075860	     13.97075860	     19.11570386	     14.90585848	     -1.68257785	     31.05448284	     -8.10072531	      0.10100599	     26.90509083	     26.90509083	      4.93044547	    -15.26957250	     10.75462558	    -10.12705335	      8.57054603	      6.29166901	     40.79683258	    -20.70091707	      7.77749208	    125.56359978	     43.42229172	      0.00000000	      0.00000000	    -20.70369325	     -8.70927225	     -0.00765431	     30.94382853	     45.55865408	      0.00000000	      0.00000000
     41.94492857	     -6.11265206	     -5.39179779	     -1.33136277	      1.06402475	      0.91757899	      0.49068369	     -3.45436877	      1.02150366	    -17.46124894	     14.90006826	     14.90006826	     18.82539691	     15.02415777	     -2.09862979	     30.83143254	     -7.66554005	      0.01635519	     27.25724834	     27.25724834	      5.77593351	    -15.53914848	     11.08480563	     -9.99515620	      8.40946084	      6.16747592	     38.96721329	    -21.87773332	      7.21981601	    126.99186298	     43.42978777	      0.00000000	      0.00000000	    -19.78774686	     -8.87320277	      0.35719624	     32.00481704	     45.52569473	      0.00000000	      0.00000000
     41.95714286	     -6.30384735	     -5.18338732	     -1.40709128	      1.06466860	      0.91846400	      0.48747363	     -3.25559161	      0.30718234	    -17.35067863	     15.99088118	     15.99088118	     18.50870656	     14.91592620	     -2.41809534	     30.44861313	     -7.28811306	     -0.17413554	     27.41761174	     27.41761174	      6.48897066	    -15.62695033	     10.95198724	     -9.84226921	      8.27492047	      5.60549700	     37.20557554	    -22.50165548	      7.07946648	    127.17117239	     43.43133711	      0.00000000	      0.00000000	    -18.96739699	     -8.88127008	      0.40012596	     32.75293155	     45.53357621	      0.00000000	      0.00000000
     41.96935714	     -6.52285196	     -4.95896561	     -1.48284214	      1.06521505	      0.91924940	      0.48422847	     -2.75103735	     -0.52547780	    -17.23557171	     17.59470669	     17.59470669	     18.14301883	     14.74758163	     -3.20029994	     30.04921803	     -6.88667105	     -0.41155330	     27.49536507	     27.49536507	      7.19164170	    -15.63477038	     10.92182705	     -9.68858963	      8.12394014	      5.47956682	     34.96043201	    -23.60207547	      6.41779314	    127.51081884	     43.44807810	      0.00000000	      0.00000000	    -18.05540926	     -9.02641423	      0.34004619	     34.14967321	     45.55737356	      0.00000000	      0.00000000
     41.98157143	     -6.59584315	     -4.86140300	     -1.51361170	      1.06581253	      0.92019813	      0.48111640	     -2.44594133	     -1.15475278	    -16.97951178	     18.96403298	     18.96403298	     16.56958575	     14.18834725	     -6.98006456	     29.49995161	     -6.59929335	     -0.55712132	     27.60248554	     27.60248554	      8.12089852	    -15.52628072	     11.36718689	     -9.74684910	      8.06202066	      6.00685027	     31.71139407	    -24.78225282	      3.82877808	    128.61601135	     43.58670599	      0.00000000	      0.00000000	    -17.10245407	     -9.74634197	      2.09384269	     36.62004606	     45.39778786	      0.00000000	      0.00000000
     41.99378571	     -6.68681971	     -4.77851620	     -1.56201485	      1.06629566	      0.92103616	      0.47807142	     -1.68777021	     -1.88812727	    -16.57899677	     21.22038476	     21.22038476	     15.80674598	     13.42035327	     -8.39077901	     28.91394052	     -6.34071134	     -0.75509752	     27.59250748	     27.59250748	      8.70379269	    -15.46397896	     11.04165935	     -9.70208623	      8.03962855	      5.75074987	     29.29038996	    -25.55856077	      3.06494871	    127.85701800	     43.64507733	      0.00000000	      0.00000000	    -16.30767542	     -9.98393941	      1.91246906	     38.47345861	     45.44753692	      0.00000000	      0.00000000
     42.00600000	     -6.73417440	     -4.71356123	     -1.56608983	      1.06671704	      0.92189794	      0.47508795	     -0.69085815	     -2.64114317	    -16.07246043	     23.95469476	     23.95469476	     14.79442807	     12.28842192	    -10.09216323	     28.20898325	     -6.09602869	     -0.97518689	     27.43428159	     27.43428159	      9.26470867	    -15.24464135	     10.72696906	     -9.64697266	      8.03935282	      5.39698286	     26.81070967	    -26.10529777	      2.40847831	    126.61881793	     43.70561360	      0.00000000	      0.00000000	    -15.41078204	    -10.21924650	      1.74611930	     40.15867657	     45.49205139	      0.00000000	      0.00000000
     42.01821429	     -6.66758864	     -4.57853322	     -1.62081597	      1.06705053	      0.92283508	      0.47229784	      0.46460264	     -3.49950782	    -15.33358662	     27.11409907	     27.11409907	     13.54542008	     10.94288423	    -11.65891249	     27.41033959	     -5.81339571	     -1.27217107	     27.34015893	     27.34015893	      9.77868720	    -15.07310851	     10.42856892	     -9.80836796	      7.90433092	      4.96944586	     24.32136963	    -26.39494274	      1.98912100	    125.11118650	     43.76061335	      0.00000000	      0.00000000	    -14.38724149	    -10.53675845	      1.56246813	     41.68200233	     45.53625808	      0.00000000	      0.00000000
     42.03042857	     -6.70490704	     -4.50460436	     -1.62487343	      1.06709098	      0.92342752	      0.46954471	      2.11385905	     -4.27253859	    -14.40025533	     30.83404299	     30.83404299	     11.82538598	      8.82284829	    -13.77078884	     26.73305401	     -5.56954978	     -1.48131301	     27.20130665	     27.20130665	     10.30635246	    -14.90421025	     10.08938938	     -9.79409553	      7.87078658	      4.68662440	     21.76475941	    -26.74256223	      1.11301380	    123.04059796	     43.84879869	      0.00000000	      0.00000000	    -13.36450012	    -10.92090663	      1.34789330	     43.71662701	     45.58756047	      0.00000000	      0.00000000
